<svg class="svg-icon" style="width: 1em; height: 1em;vertical-align: middle;fill: currentColor;overflow: hidden;" viewBox="0 0 1024 1024" version="1.1" xmlns="http://www.w3.org/2000/svg"><path d="M512.819703 957.075012c-246.30172 0-446.682694-200.380974-446.682694-446.682694s200.380974-446.682694 446.682694-446.682694 446.682694 200.380974 446.682694 446.682694S759.121423 957.075012 512.819703 957.075012zM512.819703 95.674959c-228.664298 0-414.716336 186.053062-414.716336 414.716336s186.053062 414.716336 414.716336 414.716336 414.716336-186.053062 414.716336-414.716336S741.484 95.674959 512.819703 95.674959z"  /><path d="M759.859258 398.669198l-278.557685 278.560755-0.007163 0.008187c-12.845079 12.845079-32.426865 14.848796-47.374926 6.02241-2.769183-1.639405-5.376676-3.64824-7.75494-6.02241l-0.004093-0.004093-160.382349-160.381325c-15.222319-15.223342-15.222319-39.907547 0-55.133959 15.223342-15.223342 39.906523-15.223342 55.129865 0l132.823556 132.822533 250.997869-251.001963c15.227435-15.223342 39.910617-15.223342 55.133959 0C775.081576 358.762675 775.081576 383.444833 759.859258 398.669198L759.859258 398.669198z"  /><path d="M759.859258 398.669198"  /></svg>